<svg xmlns="http://www.w3.org/2000/svg"
     viewBox="0 0 1200 320">

  <defs>
    <style>
      .dark { fill:#111111; }
      .light { fill:#666666; }
    </style>
  </defs>

  <!-- ICON -->
  <g transform="translate(30,40)">

    <!-- Halo swooshes, original colors, height-matched to brand block -->
    <g transform="matrix(0.8070355,0,0,0.8070355,-130.964652,-103.037009)">
    <g transform="matrix(2.2680332,0,0,2.2680332,-131.17214,-28.776015)">
      <path fill="#9362a3" fill-rule="nonzero" stroke="none"
        d="M 41.81,6.60671 C 31.686,7.02413 18.6787,10.1677 10.1163,13.739 5.303,15.7438 1.73671,17.9314 0,19.8845 0.808985,18.8462 2.00716,17.7536 3.54307,16.6404 5.54522,15.3496 8.10384,14.0406 11.0954,12.7934 20.4154,8.91018 34.9893,5.26421 47.0795,4.40878 50.9186,4.13569 54.2994,4.151 57.072,4.4138 L 59.1359,3.93463 C 56.5823,3.43463 53.217,3.23884 49.1948,3.40375 38.1458,3.86234 24.1775,7.0835 14.1694,10.8994 14.4219,10.7912 14.6718,10.6804 14.9269,10.5775 27.1638,5.47556 45.7446,0.984186 60.2026,0.38655 69.5279,0 75.9491,1.20583 78.1444,3.56603 78.4304,6.34655 74.3026,9.88936 66.446,13.306 c -12.1878,5.3057 -31.0984,9.1166 -45.4174,9.9026 -0.3013,0.0153 -0.5953,0.0256 -0.8939,0.0385 11.4017,-0.9224 25.4838,-3.914 34.7934,-7.9698 3.3909,-1.4765 5.9342,-2.976 7.5601,-4.4035 l -2.0845,0.438 c -2.0074,1.3243 -4.7207,2.685 -8.0574,4.0043 -10.5002,4.146 -25.4376,7.0394 -36.345,7.6347 C 12.4971,23.1416 9.29172,23.1081 6.55262,22.8685 4.33913,22.5851 2.42221,22.183 0.863076,21.6727 3.97078,22.5516 8.75319,22.8891 14.3857,22.5798 24.4094,22.0336 37.646,19.3666 46.1776,15.6509 51.6787,13.2572 54.5675,10.7783 54.3664,8.8305 52.8281,7.17875 48.3344,6.336 41.81,6.60671 z"
        transform="translate(151.794,157.46)" />
      <path fill="#0097ca" fill-rule="nonzero" stroke="none"
        d="M 37.1178,19.5573 C 27.1097,23.4688 15.2026,32.6523 7.91043,41.0833 3.81088,45.8219 1.03062,50.4471 0,54.1165 0.432989,52.2043 1.2367,50.0814 2.37313,47.8138 3.91141,45.1158 6.00116,42.2145 8.54949,39.264 16.4834,30.091 29.7844,19.6061 41.6063,14.3652 45.3607,12.6981 48.7568,11.634 51.6402,11.1648 L 53.5366,9.74265 C 50.7872,9.76323 47.3396,10.5311 43.3638,12.0849 32.4383,16.3597 19.5935,25.9709 10.9435,35.26 11.1598,35.0075 11.3659,34.755 11.5849,34.5025 22.0028,22.4561 39.0141,9.3379 53.3099,3.74914 62.5293,0.139053 69.4118,0 72.4781,3.05071 73.782,7.38747 70.9321,14.3549 64.2945,22.322 53.9954,34.68 36.4091,46.8164 22.3223,52.6606 c -0.2966,0.1211 -0.5903,0.2345 -0.8839,0.353 11.1083,-5.1328 24.1489,-14.4169 32.0158,-23.8579 2.8626,-3.4399 4.8674,-6.6479 5.9753,-9.4437 l -1.9298,1.3681 c -1.5306,2.752 -3.7568,5.7927 -6.6223,8.9619 C 41.8511,40.0165 27.911,49.4138 17.1816,53.8637 13.734,55.2915 10.5028,56.268 7.66583,56.7678 5.34416,57.0282 3.27235,57.0023 1.5177,56.6854 4.95761,57.0873 9.88434,56.0902 15.4269,53.7917 25.2854,49.7051 37.597,41.2094 44.8066,32.557 c 4.646,-5.5787 6.6402,-10.454 5.7281,-13.4894 -2.1439,-2.1359 -6.9648,-2.038 -13.4169,0.4897 z m 22.6621,-7.2381 c 0.008,0.0079 0.013,0.0129 0.0209,0.0206 -0.0053,-0.0077 -0.0079,-0.0179 -0.0129,-0.0256 -0.0053,-0.0079 -0.0103,-0.0156 -0.0182,-0.0232 0.0052,0.0103 0.0079,0.0179 0.0102,0.0282 z"
        transform="translate(151.09,121.641)" />
      <path fill="#36b386" fill-rule="nonzero" stroke="none"
        d="M 23.188,41.073 C 14.3396,51.7305 6.16106,68.773 2.61271,81.9244 0.621119,89.3171 0,95.6946 0.78603,99.9461 0.262801,97.7996 0.0335098,95.1998 0.0902391,92.2288 0.360692,88.5699 1.1235,84.3313 2.36284,79.7317 6.22544,65.4207 15.2362,46.162 25.3704,32.9771 c 3.2185,-4.1874 6.3594,-7.55 9.2479,-9.9822 l 1.3219,-2.6774 c -2.9787,1.9069 -6.326,5.0196 -9.8432,9.2556 C 16.4396,41.2044 7.46478,59.3087 2.88607,74.22 2.98633,73.8311 3.08185,73.4446 3.19003,73.0477 8.25846,54.2582 19.9389,29.9082 32.5803,14.6847 40.7303,4.86737 48.1436,0 53.0627,0.84012 c 3.6718,3.2903 4.1948,11.97148 1.1156,24.22888 -4.7748,19.0009 -17.594,42.8098 -29.8747,58.1285 -0.2602,0.3219 -0.5177,0.6312 -0.7781,0.948 9.4154,-12.5872 18.7689,-30.5108 22.4149,-45.0332 1.3272,-5.2851 1.8399,-9.7632 1.595,-13.2213 l -1.3913,2.6462 c -0.2319,3.708 -1.0771,8.1735 -2.546,13.2031 -4.6278,15.8314 -14.9037,34.4872 -24.2598,46.152 -3.0045,3.7492 -6.0114,6.9107 -8.8355,9.3432 C 8.10911,99.0804 5.84417,100.482 3.77236,101.381 7.72494,99.4049 12.5617,95.0608 17.3929,89.0311 25.9915,78.3093 34.9663,61.6457 38.3057,48.342 40.4598,39.7614 40.0938,33.6829 37.5249,31.3821 34.0798,30.7945 28.8902,34.2009 23.188,41.073 z M 44.0699,18.5138 c 0.0127,0 0.023,0.0053 0.0335,0.0076 -0.0105,-0.0076 -0.0182,-0.0126 -0.0258,-0.0205 -0.0103,-0.0051 -0.0206,-0.0051 -0.0309,-0.0077 0.0076,0.0053 0.0179,0.0129 0.0232,0.0206 z"
        transform="translate(148.934,76.4194)" />
    </g>
    </g>

  </g>

  <!-- BRAND -->
  <g transform="translate(300,80)">

    <text x="0"
          y="0"
          font-family="Arial, Helvetica, sans-serif"
          font-size="34"
          letter-spacing="6"
          class="light">
      sluiten
    </text>

    <text x="0"
          y="95"
          font-family="Arial Black, Helvetica, sans-serif"
          font-size="92"
          letter-spacing="2"
          class="dark">
      SCOREBOARD
    </text>

    <line x1="0"
          y1="120"
          x2="820"
          y2="120"
          stroke="#111111"
          stroke-width="5"/>

    <text x="0"
          y="165"
          font-family="Arial, Helvetica, sans-serif"
          font-size="22"
          class="light">
      DIGITAL ARENA DISPLAY SYSTEM
    </text>

  </g>

</svg>