<?xml version="1.0" encoding="UTF-8" standalone="no"?>
<svg
   xmlns:dc="http://purl.org/dc/elements/1.1/"
   xmlns:cc="http://creativecommons.org/ns#"
   xmlns:rdf="http://www.w3.org/1999/02/22-rdf-syntax-ns#"
   xmlns:svg="http://www.w3.org/2000/svg"
   xmlns="http://www.w3.org/2000/svg"
   xmlns:sodipodi="http://sodipodi.sourceforge.net/DTD/sodipodi-0.dtd"
   xmlns:inkscape="http://www.inkscape.org/namespaces/inkscape"
   width="595.28pt"
   version="1.1"
   height="841.89pt"
   viewBox="0 0 595.28 841.89"
   id="svg3048"
   inkscape:version="0.48.5 r10040"
   sodipodi:docname="Logo_Color_Standard.png">
  <metadata
     id="metadata3067">
    <rdf:RDF>
      <cc:Work
         rdf:about="">
        <dc:format>image/svg+xml</dc:format>
        <dc:type
           rdf:resource="http://purl.org/dc/dcmitype/StillImage" />
        <dc:title></dc:title>
      </cc:Work>
    </rdf:RDF>
  </metadata>
  <sodipodi:namedview
     pagecolor="#ffffff"
     bordercolor="#666666"
     borderopacity="1"
     objecttolerance="10"
     gridtolerance="10"
     guidetolerance="10"
     inkscape:pageopacity="0"
     inkscape:pageshadow="2"
     inkscape:window-width="951"
     inkscape:window-height="480"
     id="namedview3065"
     showgrid="false"
     inkscape:zoom="0.22425732"
     inkscape:cx="372.05002"
     inkscape:cy="526.18127"
     inkscape:window-x="774"
     inkscape:window-y="289"
     inkscape:window-maximized="0"
     inkscape:current-layer="svg3048" />
  <defs
     id="defs3050">
    <clipPath
       id="Clip0">
      <path
         d="M0 0 L0 246.745 L300 246.745 L300 0 L0 0 Z"
         transform="translate(39.5, 39.75)"
         id="path3053" />
    </clipPath>
  </defs>
  <g
     id="Background"
     transform="matrix(2.2680332,0,0,2.2680332,-131.17214,-28.776015)">
    <g
       id="Group1"
       clip-path="url(#Clip0)">
      <path
         style="fill:#161413;fill-rule:nonzero;stroke:none"
         d="m 3.59716,43.2556 c 2.43751,1.095 5.14046,1.6412 8.10624,1.6412 5.4911,0 9.4437,-1.7778 11.8632,-5.3312 1.4301,-2.0612 2.1465,-4.4294 2.1465,-7.0988 0,-3.9758 -1.7676,-7.2046 -5.3003,-9.6859 -0.7164,-0.5256 -2.5663,-1.4636 -5.5529,-2.8085 L 11.925,18.6478 c -3.82908,-1.747 -5.74099,-4.1536 -5.74099,-7.2252 0,-2.0818 0.73432,-3.78764 2.20822,-5.1122 1.55649,-1.38868 3.52247,-2.08183 5.89827,-2.08183 2.6926,0 5.6378,0.93537 8.8355,2.80849 L 25.3342,3.28291 C 21.3584,1.09527 17.4367,0 13.5665,0 10.1163,0 7.26635,0.927721 5.01671,2.77789 2.25967,5.04785 0.883657,8.00331 0.883657,11.6416 c 0,5.0917 2.953083,8.9722 8.864003,11.6443 l 2.90404,1.3246 c 2.5871,1.1567 4.3417,2.1876 5.2695,3.0918 1.4068,1.4096 2.1129,3.1542 2.1129,5.236 0,2.2314 -0.7681,4.0507 -2.3037,5.4603 -1.5771,1.4506 -3.6821,2.1747 -6.3104,2.1747 -1.93514,0 -3.81617,-0.3969 -5.64813,-1.1982 C 4.93175,38.9962 3.79558,38.3777 2.36548,37.5146 L 0,41.3643 c 1.53301,0.8813 2.73382,1.5124 3.59716,1.8913 z m 28.76644,0.7267 24.1052,0 0,-4.4811 -18.614,0 0.157,-38.586408 -5.46,0 L 32.3636,43.9823 z M 90.6929,24.2624 c -0.0206,3.7647 -0.1776,6.3621 -0.4715,7.7923 -0.5488,2.5251 -1.6206,4.4705 -3.2183,5.8388 -2.0612,1.7238 -4.8391,2.5869 -8.3305,2.5869 -2.7546,0 -5.1431,-0.6312 -7.1608,-1.894 -1.9145,-1.1981 -3.2285,-2.9348 -3.9449,-5.2048 -0.2937,-0.9689 -0.4792,-1.9301 -0.5515,-2.8885 -0.0746,-0.9559 -0.1108,-3.033 -0.1108,-6.2307 l 0.0955,-23.347608 -5.4911,0 -0.0929,23.347608 c 0,4.2903 0.1032,7.0474 0.3145,8.2661 0.5874,3.1566 2.0407,5.8366 4.3547,8.0448 3.0275,2.8831 7.2252,4.3235 12.5873,4.3235 3.5352,0 6.6582,-0.662 9.3714,-1.9865 3.9529,-1.9352 6.4574,-4.9859 7.5086,-9.1501 0.4201,-1.7055 0.6417,-4.87 0.6623,-9.4978 l 0.0955,-23.347608 -5.522,0 -0.0955,23.347608 z m 20.1551,19.7199 0.191,-43.067508 -5.553,0 -0.191,43.067508 5.553,0 z m 23.845,0 0.191,-38.61756 13.628,0 0,-4.449948 -32.938,0 0,4.449948 13.852,0 -0.19,38.61756 5.457,0 z m 41.23,0 0,-4.4502 -17.761,0 0.062,-15.2697 16.754,0 0,-4.4164 -16.721,0 0.062,-14.41926 17.133,0 0,-4.511948 -22.402,0 -0.188,43.067508 23.061,0 z m 11.954,0 0.093,-22.9073 c 0.02,-4.7101 -0.189,-9.0956 -0.632,-13.15402 1.662,3.36522 4.061,7.24582 7.194,11.64162 l 17.826,25.1772 4.543,-1.8295 0.191,-41.995508 -5.27,0 -0.095,21.675308 c -0.021,4.3135 0.211,9.0677 0.696,14.2623 -1.075,-2.1257 -1.979,-3.7645 -2.714,-4.9215 -0.801,-1.2626 -2.282,-3.4296 -4.449,-6.5012 l -17.888,-25.20806 -4.546,1.86045 -0.188,41.90021 5.239,0 z"
         transform="translate(80.939,197.232)"
         id="path3057"
         inkscape:connector-curvature="0" />
      <path
         style="fill:#36b386;fill-rule:nonzero;stroke:none"
         d="M 41.81,6.60671 C 31.686,7.02413 18.6787,10.1677 10.1163,13.739 5.303,15.7438 1.73671,17.9314 0,19.8845 0.808985,18.8462 2.00716,17.7536 3.54307,16.6404 5.54522,15.3496 8.10384,14.0406 11.0954,12.7934 20.4154,8.91018 34.9893,5.26421 47.0795,4.40878 50.9186,4.13569 54.2994,4.151 57.072,4.4138 L 59.1359,3.93463 C 56.5823,3.43463 53.217,3.23884 49.1948,3.40375 38.1458,3.86234 24.1775,7.0835 14.1694,10.8994 14.4219,10.7912 14.6718,10.6804 14.9269,10.5775 27.1638,5.47556 45.7446,0.984186 60.2026,0.38655 69.5279,0 75.9491,1.20583 78.1444,3.56603 78.4304,6.34655 74.3026,9.88936 66.446,13.306 c -12.1878,5.3057 -31.0984,9.1166 -45.4174,9.9026 -0.3013,0.0153 -0.5953,0.0256 -0.8939,0.0385 11.4017,-0.9224 25.4838,-3.914 34.7934,-7.9698 3.3909,-1.4765 5.9342,-2.976 7.5601,-4.4035 l -2.0845,0.438 c -2.0074,1.3243 -4.7207,2.685 -8.0574,4.0043 -10.5002,4.146 -25.4376,7.0394 -36.345,7.6347 C 12.4971,23.1416 9.29172,23.1081 6.55262,22.8685 4.33913,22.5851 2.42221,22.183 0.863076,21.6727 3.97078,22.5516 8.75319,22.8891 14.3857,22.5798 24.4094,22.0336 37.646,19.3666 46.1776,15.6509 51.6787,13.2572 54.5675,10.7783 54.3664,8.8305 52.8281,7.17875 48.3344,6.336 41.81,6.60671 z"
         transform="translate(151.794,157.46)"
         id="path3059"
         inkscape:connector-curvature="0" />
      <path
         style="fill:#0097ca;fill-rule:nonzero;stroke:none"
         d="M 37.1178,19.5573 C 27.1097,23.4688 15.2026,32.6523 7.91043,41.0833 3.81088,45.8219 1.03062,50.4471 0,54.1165 0.432989,52.2043 1.2367,50.0814 2.37313,47.8138 3.91141,45.1158 6.00116,42.2145 8.54949,39.264 16.4834,30.091 29.7844,19.6061 41.6063,14.3652 45.3607,12.6981 48.7568,11.634 51.6402,11.1648 L 53.5366,9.74265 C 50.7872,9.76323 47.3396,10.5311 43.3638,12.0849 32.4383,16.3597 19.5935,25.9709 10.9435,35.26 11.1598,35.0075 11.3659,34.755 11.5849,34.5025 22.0028,22.4561 39.0141,9.3379 53.3099,3.74914 62.5293,0.139053 69.4118,0 72.4781,3.05071 73.782,7.38747 70.9321,14.3549 64.2945,22.322 53.9954,34.68 36.4091,46.8164 22.3223,52.6606 c -0.2966,0.1211 -0.5903,0.2345 -0.8839,0.353 11.1083,-5.1328 24.1489,-14.4169 32.0158,-23.8579 2.8626,-3.4399 4.8674,-6.6479 5.9753,-9.4437 l -1.9298,1.3681 c -1.5306,2.752 -3.7568,5.7927 -6.6223,8.9619 C 41.8511,40.0165 27.911,49.4138 17.1816,53.8637 13.734,55.2915 10.5028,56.268 7.66583,56.7678 5.34416,57.0282 3.27235,57.0023 1.5177,56.6854 4.95761,57.0873 9.88434,56.0902 15.4269,53.7917 25.2854,49.7051 37.597,41.2094 44.8066,32.557 c 4.646,-5.5787 6.6402,-10.454 5.7281,-13.4894 -2.1439,-2.1359 -6.9648,-2.038 -13.4169,0.4897 z m 22.6621,-7.2381 c 0.008,0.0079 0.013,0.0129 0.0209,0.0206 -0.0053,-0.0077 -0.0079,-0.0179 -0.0129,-0.0256 -0.0053,-0.0079 -0.0103,-0.0156 -0.0182,-0.0232 0.0052,0.0103 0.0079,0.0179 0.0102,0.0282 z"
         transform="translate(151.09,121.641)"
         id="path3061"
         inkscape:connector-curvature="0" />
      <path
         style="fill:#9362a3;fill-rule:nonzero;stroke:none"
         d="M 23.188,41.073 C 14.3396,51.7305 6.16106,68.773 2.61271,81.9244 0.621119,89.3171 0,95.6946 0.78603,99.9461 0.262801,97.7996 0.0335098,95.1998 0.0902391,92.2288 0.360692,88.5699 1.1235,84.3313 2.36284,79.7317 6.22544,65.4207 15.2362,46.162 25.3704,32.9771 c 3.2185,-4.1874 6.3594,-7.55 9.2479,-9.9822 l 1.3219,-2.6774 c -2.9787,1.9069 -6.326,5.0196 -9.8432,9.2556 C 16.4396,41.2044 7.46478,59.3087 2.88607,74.22 2.98633,73.8311 3.08185,73.4446 3.19003,73.0477 8.25846,54.2582 19.9389,29.9082 32.5803,14.6847 40.7303,4.86737 48.1436,0 53.0627,0.84012 c 3.6718,3.2903 4.1948,11.97148 1.1156,24.22888 -4.7748,19.0009 -17.594,42.8098 -29.8747,58.1285 -0.2602,0.3219 -0.5177,0.6312 -0.7781,0.948 9.4154,-12.5872 18.7689,-30.5108 22.4149,-45.0332 1.3272,-5.2851 1.8399,-9.7632 1.595,-13.2213 l -1.3913,2.6462 c -0.2319,3.708 -1.0771,8.1735 -2.546,13.2031 -4.6278,15.8314 -14.9037,34.4872 -24.2598,46.152 -3.0045,3.7492 -6.0114,6.9107 -8.8355,9.3432 C 8.10911,99.0804 5.84417,100.482 3.77236,101.381 7.72494,99.4049 12.5617,95.0608 17.3929,89.0311 25.9915,78.3093 34.9663,61.6457 38.3057,48.342 40.4598,39.7614 40.0938,33.6829 37.5249,31.3821 34.0798,30.7945 28.8902,34.2009 23.188,41.073 z M 44.0699,18.5138 c 0.0127,0 0.023,0.0053 0.0335,0.0076 -0.0105,-0.0076 -0.0182,-0.0126 -0.0258,-0.0205 -0.0103,-0.0051 -0.0206,-0.0051 -0.0309,-0.0077 0.0076,0.0053 0.0179,0.0129 0.0232,0.0206 z"
         transform="translate(148.934,76.4194)"
         id="path3063"
         inkscape:connector-curvature="0" />
    </g>
  </g>
</svg>
